<svg viewBox="0 0 1180 470" xmlns="http://www.w3.org/2000/svg" font-family="-apple-system, Segoe UI, Roboto, Helvetica, Arial, sans-serif"><rect x="0" y="0" width="1180" height="470" rx="0" fill="#0f1419" stroke="#0f1419" stroke-width="1"/><text x="40" y="46" font-size="17" font-weight="700" fill="#e6e9ee" text-anchor="start">Sharper foundation + connected methods   v1.3.2</text><line x1="40" y1="72" x2="1140" y2="72" stroke="#2b333f"/><rect x="40" y="92" width="265" height="168" rx="12" fill="#171d26" stroke="#2b333f" stroke-width="1"/><rect x="40" y="92" width="6" height="168" rx="3" fill="#4f9dff"/><text x="60" y="116" font-size="12.5" font-weight="700" fill="#e6e9ee" text-anchor="start">🧼  ocrprep.py  §1.3/1.8</text><circle cx="64" cy="133" r="3" fill="#4f9dff"/><text x="76" y="136" font-size="8.7" font-weight="400" fill="#9aa6b6" text-anchor="start">deskew (8° → 0)</text><circle cx="64" cy="147" r="3" fill="#4f9dff"/><text x="76" y="150" font-size="8.7" font-weight="400" fill="#9aa6b6" text-anchor="start">denoise · Otsu binarize</text><circle cx="64" cy="161" r="3" fill="#4f9dff"/><text x="76" y="164" font-size="8.7" font-weight="400" fill="#9aa6b6" text-anchor="start">orientation (OSD)</text><circle cx="64" cy="175" r="3" fill="#4f9dff"/><text x="76" y="178" font-size="8.7" font-weight="400" fill="#9aa6b6" text-anchor="start">better OCR input</text><rect x="56" y="230" width="233" height="22" rx="6" fill="#1c2430" stroke="#4f9dff" stroke-width="1"/><text x="66" y="245" font-size="8.8" font-weight="700" fill="#4f9dff" text-anchor="start">PRE-OCR</text><rect x="320" y="92" width="265" height="168" rx="12" fill="#171d26" stroke="#2b333f" stroke-width="1"/><rect x="320" y="92" width="6" height="168" rx="3" fill="#1d9e75"/><text x="340" y="116" font-size="12.5" font-weight="700" fill="#e6e9ee" text-anchor="start">🗺  layout.py  §2.4</text><circle cx="344" cy="133" r="3" fill="#1d9e75"/><text x="356" y="136" font-size="8.7" font-weight="400" fill="#9aa6b6" text-anchor="start">title/heading/para/caption</text><circle cx="344" cy="147" r="3" fill="#1d9e75"/><text x="356" y="150" font-size="8.7" font-weight="400" fill="#9aa6b6" text-anchor="start">header/footer/figure</text><circle cx="344" cy="161" r="3" fill="#1d9e75"/><text x="356" y="164" font-size="8.7" font-weight="400" fill="#9aa6b6" text-anchor="start">from PyMuPDF blocks (no ML)</text><circle cx="344" cy="175" r="3" fill="#1d9e75"/><text x="356" y="178" font-size="8.7" font-weight="400" fill="#9aa6b6" text-anchor="start">reading order · /api/layout</text><rect x="336" y="230" width="233" height="22" rx="6" fill="#1c2430" stroke="#1d9e75" stroke-width="1"/><text x="346" y="245" font-size="8.8" font-weight="700" fill="#1d9e75" text-anchor="start">LAYOUT</text><rect x="600" y="92" width="265" height="168" rx="12" fill="#171d26" stroke="#2b333f" stroke-width="1"/><rect x="600" y="92" width="6" height="168" rx="3" fill="#caa24a"/><text x="620" y="116" font-size="12.5" font-weight="700" fill="#e6e9ee" text-anchor="start">🧬  dedup.py  §7.1</text><circle cx="624" cy="133" r="3" fill="#caa24a"/><text x="636" y="136" font-size="8.7" font-weight="400" fill="#9aa6b6" text-anchor="start">word-shingle fingerprints</text><circle cx="624" cy="147" r="3" fill="#caa24a"/><text x="636" y="150" font-size="8.7" font-weight="400" fill="#9aa6b6" text-anchor="start">Jaccard clustering</text><circle cx="624" cy="161" r="3" fill="#caa24a"/><text x="636" y="164" font-size="8.7" font-weight="400" fill="#9aa6b6" text-anchor="start">same TM diff change# → cluster</text><circle cx="624" cy="175" r="3" fill="#caa24a"/><text x="636" y="178" font-size="8.7" font-weight="400" fill="#9aa6b6" text-anchor="start">prefer latest · de-dupe hits</text><rect x="616" y="230" width="233" height="22" rx="6" fill="#1c2430" stroke="#caa24a" stroke-width="1"/><text x="626" y="245" font-size="8.8" font-weight="700" fill="#caa24a" text-anchor="start">EDITIONS</text><rect x="880" y="92" width="265" height="168" rx="12" fill="#171d26" stroke="#2b333f" stroke-width="1"/><rect x="880" y="92" width="6" height="168" rx="3" fill="#7f77dd"/><text x="900" y="116" font-size="12.5" font-weight="700" fill="#e6e9ee" text-anchor="start">🤝  crossval.py  §7.5</text><circle cx="904" cy="133" r="3" fill="#7f77dd"/><text x="916" y="136" font-size="8.7" font-weight="400" fill="#9aa6b6" text-anchor="start">measures + tables + IETM agree</text><circle cx="904" cy="147" r="3" fill="#7f77dd"/><text x="916" y="150" font-size="8.7" font-weight="400" fill="#9aa6b6" text-anchor="start">→ confidence up (3-way=1.0)</text><circle cx="904" cy="161" r="3" fill="#7f77dd"/><text x="916" y="164" font-size="8.7" font-weight="400" fill="#9aa6b6" text-anchor="start">disagreements → conflict flag</text><circle cx="904" cy="175" r="3" fill="#7f77dd"/><text x="916" y="178" font-size="8.7" font-weight="400" fill="#9aa6b6" text-anchor="start">feeds Masterfile confidence</text><rect x="896" y="230" width="233" height="22" rx="6" fill="#1c2430" stroke="#7f77dd" stroke-width="1"/><text x="906" y="245" font-size="8.8" font-weight="700" fill="#7f77dd" text-anchor="start">AGREEMENT</text><line x1="40" y1="282" x2="1140" y2="282" stroke="#2b333f"/><text x="40" y="308" font-size="13" font-weight="700" fill="#e6e9ee" text-anchor="start">R12 progress — foundation &amp; cross-document lanes done</text><rect x="40" y="320" width="1100" height="112" rx="12" fill="#171d26" stroke="#2f7d4f" stroke-width="1"/><text x="58" y="344" font-size="10.5" font-weight="400" fill="#9aa6b6" text-anchor="start">✅ now spans §1.3/1.8 (OCR prep), §2.2/2.3/2.4/2.6 (tables + layout + cleanup), §3.2/3.6-3.11 (semantic), §5.1-5.5/5.8 (PDF-native), §6.2 (IETM), §7.1/7.4/7.5 (dedup, graph, cross-validation). ◐: §4.6 dimension geometry, §4.9 QR, §9.1 OCR-confidence.</text><text x="58" y="360" font-size="10.5" font-weight="400" fill="#9aa6b6" text-anchor="start">Remaining ○ are the last vision pieces: §4.5 callout-number OCR + §4.8 symbol detection (next wave), and §10.1 vision-language QA (GPU/host model). The self-standing repository is nearly feature-complete on the non-VLM span (R12).</text></svg>